<svg width="28" height="37" viewBox="0 0 28 37" fill="none" xmlns="http://www.w3.org/2000/svg">
  <path d="M0.483419 0.161201C0.33235 0.241772 0.16114 0.392841 0.100712 0.503624C0.0302137 0.624477 0 6.47586 0 18.3297V35.9745L0.292065 36.2665C0.543846 36.5082 0.674772 36.5586 1.07762 36.5586C1.50061 36.5586 1.62147 36.5082 1.87325 36.2464L2.16531 35.9442L2.21567 28.4714L2.26602 21.0086L2.84008 20.6863C4.44141 19.7799 6.08302 19.3872 7.90591 19.4677C9.9403 19.5584 11.4409 20.0921 13.3444 21.3913C15.6708 22.9826 17.8059 23.6674 20.4345 23.6674C22.8516 23.6674 25.0773 23.0027 27.0513 21.6935C28.0886 21.0086 27.998 21.9453 27.998 11.8539C27.998 2.11502 28.0282 2.59844 27.3736 2.25602C26.9204 2.02438 26.5377 2.12509 25.6514 2.69915C24.0601 3.73648 22.3178 4.26019 20.4446 4.25012C18.2591 4.25012 16.8592 3.78684 14.5932 2.30637C13.0322 1.28918 12.1257 0.856117 10.746 0.463337C8.23826 -0.261791 5.3881 -0.100651 2.9408 0.88633L2.23581 1.17839L2.17538 0.88633C2.14517 0.725189 1.98403 0.453266 1.82289 0.29213C1.48047 -0.0402222 0.946695 -0.100651 0.483419 0.161201ZM9.71873 2.5078C10.9373 2.80993 11.9042 3.25307 13.3142 4.18969C15.8219 5.86151 17.7354 6.47586 20.4446 6.47586C22.2876 6.48593 23.6976 6.18379 25.6111 5.38816C25.7723 5.31767 25.7823 5.6903 25.7622 12.5992L25.732 19.8807L24.8256 20.3641C24.3321 20.6159 23.5163 20.9583 23.0127 21.1093C22.1869 21.3611 21.9553 21.3813 20.4949 21.3913C18.0174 21.4014 16.8592 21.0187 14.5026 19.4375C12.0452 17.7858 9.85972 17.1514 6.9995 17.2521C5.3881 17.3125 4.23998 17.5441 2.95087 18.0678C2.59838 18.2189 2.29624 18.3297 2.26602 18.3297C2.23581 18.3297 2.21567 15.0666 2.21567 11.0784V3.8372L2.86023 3.47463C4.9349 2.31644 7.4527 1.96395 9.71873 2.5078Z" fill="currentColor"/>
</svg>
